<svg width="19" height="16" viewBox="0 0 19 16" fill="none" xmlns="http://www.w3.org/2000/svg">
<path d="M9.19058 2.96605C12.3571 2.96605 15.1812 4.74568 16.5597 7.56134C16.0668 8.58066 15.3733 9.45794 14.5462 10.1681L15.7242 11.3462C16.8856 10.3185 17.8047 9.03183 18.3812 7.56134C16.9357 3.89346 13.3681 1.29504 9.19058 1.29504C8.12948 1.29504 7.11016 1.46214 6.14933 1.77127L7.52792 3.14986C8.071 3.04124 8.62243 2.96605 9.19058 2.96605ZM8.29658 3.91853L10.0261 5.64803C10.5023 5.8569 10.8867 6.24124 11.0955 6.71748L12.825 8.44698C12.8919 8.1629 12.942 7.86212 12.942 7.55298C12.9504 5.48093 11.2626 3.80156 9.19058 3.80156C8.88144 3.80156 8.58901 3.84333 8.29658 3.91853ZM0.843862 1.18642L3.08302 3.42558C1.72114 4.49503 0.64334 5.91539 0 7.56134C1.44543 11.2292 5.01304 13.8276 9.19058 13.8276C10.4605 13.8276 11.6804 13.5853 12.8 13.1425L15.6574 16L16.8355 14.8219L2.02193 0L0.843862 1.18642ZM7.11016 7.45272L9.29084 9.6334C9.25742 9.64175 9.224 9.6501 9.19058 9.6501C8.03758 9.6501 7.10181 8.71434 7.10181 7.56134C7.10181 7.51956 7.11016 7.4945 7.11016 7.45272ZM4.26944 4.612L5.73158 6.07414C5.53941 6.53366 5.43079 7.03497 5.43079 7.56134C5.43079 9.6334 7.11852 11.3211 9.19058 11.3211C9.71695 11.3211 10.2182 11.2125 10.6694 11.0203L11.4882 11.8391C10.753 12.0397 9.98431 12.1566 9.19058 12.1566C6.024 12.1566 3.19999 10.377 1.82141 7.56134C2.40626 6.36656 3.25848 5.38066 4.26944 4.612Z" fill="black" fill-opacity="0.5"/>
</svg>
